<?xml version="1.0" encoding="UTF-8"?>
<svg width="138px" height="138px" viewBox="0 0 138 138" version="1.1" xmlns="http://www.w3.org/2000/svg" xmlns:xlink="http://www.w3.org/1999/xlink">
    <title>形状结合备份 8</title>
    <defs>
        <linearGradient x1="50%" y1="0%" x2="50%" y2="100%" id="linearGradient-1">
            <stop stop-color="#FCFDFE" offset="0%"></stop>
            <stop stop-color="#FFEBEB" offset="100%"></stop>
        </linearGradient>
        <path d="M1160.08874,406.296683 C1193.22583,406.296683 1220.08874,379.433768 1220.08874,346.296683 C1220.08874,313.159598 1193.22583,286.296683 1160.08874,286.296683 C1126.95166,286.296683 1100.08874,313.159598 1100.08874,346.296683 C1100.08874,379.433768 1126.95166,406.296683 1160.08874,406.296683 Z M1184.83833,344.120017 C1180.7289,340.123564 1175.38128,337.263649 1168.9373,335.625697 C1165.81749,334.833476 1162.61845,334.370228 1159.39591,334.244024 L1159.39591,320.850707 C1159.39542,320.264697 1159.05442,319.728884 1158.51422,319.46532 C1157.96966,319.200398 1157.31829,319.250486 1156.82368,319.595316 L1125.75379,341.263816 C1125.33632,341.554035 1125.08874,342.021372 1125.08874,342.519207 C1125.08874,343.017043 1125.33632,343.48438 1125.75379,343.774599 L1156.82368,365.342816 C1157.31815,365.684968 1157.96754,365.733588 1158.51039,365.469098 C1159.05147,365.207833 1159.39414,364.673168 1159.39591,364.087425 L1159.39591,351.474085 C1170.578,351.752648 1179.49837,354.946839 1185.26384,360.755809 C1189.78728,365.313103 1190.84914,369.955822 1190.87214,370.052391 C1191.02547,370.776655 1191.68866,371.296683 1192.45917,371.296683 C1193.33954,371.302928 1194.06187,370.622921 1194.08071,369.770113 C1194.26855,358.90615 1191.15964,350.274406 1184.83833,344.120017 Z" id="path-2"></path>
        <filter x="-12.5%" y="-10.0%" width="125.0%" height="125.0%" filterUnits="objectBoundingBox" id="filter-3">
            <feOffset dx="0" dy="3" in="SourceAlpha" result="shadowOffsetOuter1"></feOffset>
            <feGaussianBlur stdDeviation="4.5" in="shadowOffsetOuter1" result="shadowBlurOuter1"></feGaussianBlur>
            <feColorMatrix values="0 0 0 0 0.760784314   0 0 0 0 0.352941176   0 0 0 0 0.317647059  0 0 0 1 0" type="matrix" in="shadowBlurOuter1"></feColorMatrix>
        </filter>
    </defs>
    <g id="一体机" stroke="none" stroke-width="1" fill="none" fill-rule="evenodd">
        <g id="形状结合备份-8" transform="translate(-1091.000000, -280.000000)">
            <use fill="black" fill-opacity="1" filter="url(#filter-3)" xlink:href="#path-2"></use>
            <use fill="url(#linearGradient-1)" fill-rule="evenodd" xlink:href="#path-2"></use>
        </g>
    </g>
</svg>