<?xml version="1.0" encoding="UTF-8"?>
<svg width="138px" height="138px" viewBox="0 0 138 138" version="1.1" xmlns="http://www.w3.org/2000/svg" xmlns:xlink="http://www.w3.org/1999/xlink">
    <title>形状结合备份</title>
    <defs>
        <linearGradient x1="50%" y1="0%" x2="50%" y2="100%" id="linearGradient-1">
            <stop stop-color="#FCFDFE" offset="0%"></stop>
            <stop stop-color="#E0F2FE" offset="100%"></stop>
        </linearGradient>
        <path d="M300,686 C333.137085,686 360,712.862915 360,746 C360,779.137085 333.137085,806 300,806 C266.862915,806 240,779.137085 240,746 C240,712.862915 266.862915,686 300,686 Z M323.028571,771.253036 L276.971429,771.253036 L276.971429,776 L323.028571,776 L323.028571,771.253036 Z M321.295238,759.385625 L278.704762,759.385625 C275.485714,759.385625 274.12381,760.884666 274,764.132589 L274,768.879553 L326,768.879553 L326,764.382429 C326,761.009586 324.514286,759.385625 321.295238,759.385625 Z M288.733333,720.660389 C282.542857,726.906395 283.533333,737.149844 289.104762,744.145371 C290.342857,745.769332 289.72381,746.768693 288.980952,747.768054 C288.733333,748.017894 287.742857,749.142175 287.495238,749.516936 C286.504762,750.891057 286.257143,753.014699 286.628571,754.2639 C287.12381,756.137702 288.980952,756.262622 290.342857,756.512462 C293.438095,756.887222 296.657143,756.637382 299.87619,756.637382 L309.161905,756.637382 C311.019048,756.637382 312.504762,756.137702 313.247619,754.38882 C314.114286,752.515018 313.619048,750.766137 312.257143,749.267095 L310.771429,747.768054 C309.657143,746.643773 309.657143,745.394572 310.647619,744.145371 C311.638095,743.02109 312.628571,741.771889 313.371429,740.522687 C317.704762,733.652081 316.219048,724.657833 309.904762,719.536108 C303.714286,714.414383 294.428571,714.914064 288.733333,720.660389 Z" id="path-2"></path>
        <filter x="-12.5%" y="-10.0%" width="125.0%" height="125.0%" filterUnits="objectBoundingBox" id="filter-3">
            <feOffset dx="0" dy="3" in="SourceAlpha" result="shadowOffsetOuter1"></feOffset>
            <feGaussianBlur stdDeviation="4.5" in="shadowOffsetOuter1" result="shadowBlurOuter1"></feGaussianBlur>
            <feColorMatrix values="0 0 0 0 0.321568627   0 0 0 0 0.619607843   0 0 0 0 0.741176471  0 0 0 1 0" type="matrix" in="shadowBlurOuter1"></feColorMatrix>
        </filter>
    </defs>
    <g id="一体机" stroke="none" stroke-width="1" fill="none" fill-rule="evenodd">
        <g id="形状结合备份" transform="translate(-231.000000, -680.000000)">
            <use fill="black" fill-opacity="1" filter="url(#filter-3)" xlink:href="#path-2"></use>
            <use fill="url(#linearGradient-1)" fill-rule="evenodd" xlink:href="#path-2"></use>
        </g>
    </g>
</svg>