<?xml version="1.0" encoding="UTF-8"?>
<svg width="138px" height="138px" viewBox="0 0 138 138" version="1.1" xmlns="http://www.w3.org/2000/svg" xmlns:xlink="http://www.w3.org/1999/xlink">
    <title>形状结合备份 7</title>
    <defs>
        <linearGradient x1="50%" y1="0%" x2="50%" y2="100%" id="linearGradient-1">
            <stop stop-color="#FCFDFE" offset="0%"></stop>
            <stop stop-color="#E0FEF2" offset="100%"></stop>
        </linearGradient>
        <path d="M300,286 C333.137085,286 360,312.862915 360,346 C360,379.137085 333.137085,406 300,406 C266.862915,406 240,379.137085 240,346 C240,312.862915 266.862915,286 300,286 Z M303.245805,316 L286.87165,316 L286.87165,317.298 L280.507518,317.298 L280.507518,317.43 L279.342558,317.43 C277.249946,317.43 275.610373,318.09 274.531706,319.366 C273.51776,320.51 273,322.138 273,324.074 L273,357.338 C273,359.34 273.58248,361.034 274.725866,362.266 C275.912399,363.542 277.616692,364.224 279.666158,364.224 L279.641225,364.22499 C279.597075,364.226778 279.498654,364.230912 279.381361,364.23677 L279.315725,364.240132 C279.304544,364.240719 279.293261,364.24132 279.281901,364.241934 L279.213044,364.245767 L279.213044,364.245767 L279.143634,364.249886 C279.120547,364.251304 279.097582,364.252766 279.074949,364.254269 L279.008266,364.258892 C278.34482,364.307046 278.189605,364.389094 284.579304,364.39901 L285.922423,364.4 L285.922423,364.4 C285.922423,364.4 285.037917,368.25 288.079756,368.8 C294.141861,369.922 296.8601,372.166 299.1253,374.234 C301.843539,376.698 305.338418,382 305.338418,382 L321.518414,382 L321.554021,381.964138 C321.858083,381.654061 324.050198,379.342714 325.833079,375.4 C326.194307,374.605953 326.585404,373.336736 326.934128,372.0559 L327.062773,371.575948 C327.547214,369.740984 327.925437,368.001751 327.982852,367.735218 L327.990412,367.7 L327.990412,367.7 C327.993416,367.669367 327.995583,367.224996 327.997089,366.482105 L327.997845,366.047979 C327.997961,365.970921 327.998071,365.891569 327.998176,365.81001 L327.99899,365.018716 C327.999066,364.924691 327.999137,364.828719 327.999204,364.730885 L327.99915,358.143694 C327.999095,358.006906 327.999038,357.869815 327.998979,357.732508 L327.998183,356.079976 C327.99811,355.942322 327.998036,355.804799 327.997959,355.667492 L327.99724,354.439909 C327.997157,354.304679 327.997073,354.169926 327.996988,354.035735 L327.996201,352.845548 C327.996111,352.715512 327.996022,352.586299 327.995932,352.457995 L327.995115,351.330135 C327.995024,351.208063 327.994933,351.08716 327.994842,350.967512 L327.994033,349.92691 C327.993945,349.815572 327.993857,349.70575 327.993769,349.597529 L327.993006,348.669114 C327.992924,348.571281 327.992844,348.475309 327.992764,348.381284 L327.992084,347.58999 C327.992013,347.508431 327.991944,347.429079 327.991876,347.352021 L327.991008,346.379024 C327.990961,346.32707 327.990917,346.277843 327.990875,346.23143 L327.990412,345.7 L327.990412,345.7 C327.786446,340.8536 323.147146,341.277542 322.641648,341.301023 L322.602154,341.301633 C322.598792,341.301331 322.59708,341.3008 322.59708,341.3 C322.359773,338.44 320.741774,335.316 316.944868,335.404 L316.944868,323.81 C316.944868,321.918 316.427108,320.532 315.348442,319.344 C314.226629,318.09 312.630203,317.298 310.66703,317.298 L303.245805,317.298 L303.245805,316 Z M313.579326,337.458021 L313.579429,357.14 L316.362388,357.14 L316.362388,342.51 C316.319242,340.046 318.908041,339.716 319.166921,342.488 L319.166921,357.052 L321.94988,357.14 L321.94988,347.394 C322.07932,344.534 324.40924,344.71 324.732839,347.35 L324.732839,366.776 C324.560253,368.844 323.611026,374.036 320.051427,377.622 L307.236871,377.622 C306.201351,375.598 301.649379,369.24 296.709087,366.6 C294.638048,365.5 291.207888,365.544 291.315755,363.3 C291.402048,361.562 293.796688,360.902 296.709087,361.1 C300.203966,361.342 304.302898,365.896 304.302898,365.896 L304.346045,340.508 C304.410765,337.846 307.948791,337.978 308.013511,340.53 L308.013511,357.118 L310.839616,357.03 L310.79647,337.626 C310.817541,335.176326 313.514219,335.161334 313.579326,337.458021 Z M298.111353,345.942 L298.111353,349.858 L282.405971,349.858 L282.405971,345.942 L298.111353,345.942 Z M298.73698,337.494 L298.73698,341.41 L282.405971,341.41 L282.405971,337.494 L298.73698,337.494 Z M305.101111,329.134 L305.101111,333.578 L282.384397,333.578 L282.384397,329.134 L305.101111,329.134 Z" id="path-2"></path>
        <filter x="-12.5%" y="-10.0%" width="125.0%" height="125.0%" filterUnits="objectBoundingBox" id="filter-3">
            <feOffset dx="0" dy="3" in="SourceAlpha" result="shadowOffsetOuter1"></feOffset>
            <feGaussianBlur stdDeviation="4.5" in="shadowOffsetOuter1" result="shadowBlurOuter1"></feGaussianBlur>
            <feColorMatrix values="0 0 0 0 0.325490196   0 0 0 0 0.596078431   0 0 0 0 0.458823529  0 0 0 1 0" type="matrix" in="shadowBlurOuter1"></feColorMatrix>
        </filter>
    </defs>
    <g id="一体机" stroke="none" stroke-width="1" fill="none" fill-rule="evenodd">
        <g id="形状结合备份-7" transform="translate(-231.000000, -280.000000)">
            <use fill="black" fill-opacity="1" filter="url(#filter-3)" xlink:href="#path-2"></use>
            <use fill="url(#linearGradient-1)" fill-rule="evenodd" xlink:href="#path-2"></use>
        </g>
    </g>
</svg>