<?xml version="1.0" encoding="UTF-8"?>
<svg width="138px" height="138px" viewBox="0 0 138 138" version="1.1" xmlns="http://www.w3.org/2000/svg" xmlns:xlink="http://www.w3.org/1999/xlink">
    <title>形状结合备份 2</title>
    <defs>
        <linearGradient x1="50%" y1="0%" x2="50%" y2="100%" id="linearGradient-1">
            <stop stop-color="#FCFDFE" offset="0%"></stop>
            <stop stop-color="#E0F2FE" offset="100%"></stop>
        </linearGradient>
        <path d="M730,686 C763.137085,686 790,712.862915 790,746 C790,779.137085 763.137085,806 730,806 C696.862915,806 670,779.137085 670,746 C670,712.862915 696.862915,686 730,686 Z M727.809282,753.354954 L702.00749,753.354954 L702.00749,770.553629 C702.00749,773.562101 704.47158,776 707.512371,776 L727.809282,776 L727.809282,753.354954 Z M758,753.354954 L732.205697,753.354954 L732.205697,776 L752.495118,776 C755.53591,776 758,773.562101 758,770.553629 L758,770.553629 L758,753.354954 Z M727.801792,729.279772 L707.504882,729.279772 C704.46409,729.279772 702,731.717671 702,734.726142 L702,749.042317 L727.801792,749.042317 L727.801792,729.279772 Z M752.495118,729.279772 L732.205697,729.287182 L732.205697,749.042317 L758,749.042317 L758,734.726142 C758,731.717671 755.53591,729.279772 752.495118,729.279772 Z M745.68704,717.972068 C744.473719,716.023231 741.889795,715.415609 739.920021,716.616033 C739.560519,716.830924 739.238465,717.105095 738.961348,717.416316 L738.961348,717.416316 L730.003745,727.553235 L743.163033,724.174262 C745.409924,723.59628 746.758058,721.328811 746.173867,719.105803 C746.069012,718.705661 745.90424,718.32775 745.68704,717.972068 Z M720.087468,716.616033 C718.117694,715.415609 715.53377,716.023231 714.320449,717.972068 C714.10325,718.32034 713.938478,718.705661 713.833623,719.105803 C713.249432,721.328811 714.597566,723.59628 716.844456,724.174262 L716.844456,724.174262 L730.003745,727.553235 L721.046142,717.416316 C720.769025,717.105095 720.446971,716.830924 720.087468,716.616033 Z" id="path-2"></path>
        <filter x="-12.5%" y="-10.0%" width="125.0%" height="125.0%" filterUnits="objectBoundingBox" id="filter-3">
            <feOffset dx="0" dy="3" in="SourceAlpha" result="shadowOffsetOuter1"></feOffset>
            <feGaussianBlur stdDeviation="4.5" in="shadowOffsetOuter1" result="shadowBlurOuter1"></feGaussianBlur>
            <feColorMatrix values="0 0 0 0 0.321568627   0 0 0 0 0.619607843   0 0 0 0 0.741176471  0 0 0 1 0" type="matrix" in="shadowBlurOuter1"></feColorMatrix>
        </filter>
    </defs>
    <g id="一体机" stroke="none" stroke-width="1" fill="none" fill-rule="evenodd">
        <g id="形状结合备份-2" transform="translate(-661.000000, -680.000000)">
            <use fill="black" fill-opacity="1" filter="url(#filter-3)" xlink:href="#path-2"></use>
            <use fill="url(#linearGradient-1)" fill-rule="evenodd" xlink:href="#path-2"></use>
        </g>
    </g>
</svg>