<?xml version="1.0" encoding="UTF-8"?>
<svg width="138px" height="138px" viewBox="0 0 138 138" version="1.1" xmlns="http://www.w3.org/2000/svg" xmlns:xlink="http://www.w3.org/1999/xlink">
    <title>形状结合备份 3</title>
    <defs>
        <linearGradient x1="50%" y1="0%" x2="50%" y2="100%" id="linearGradient-1">
            <stop stop-color="#FCFDFE" offset="0%"></stop>
            <stop stop-color="#E0F2FE" offset="100%"></stop>
        </linearGradient>
        <path d="M1160,686 C1193.13708,686 1220,712.862915 1220,746 C1220,779.137085 1193.13708,806 1160,806 C1126.86292,806 1100,779.137085 1100,746 C1100,712.862915 1126.86292,686 1160,686 Z M1160.47866,716 C1159.17452,716.021374 1158.02559,716.864043 1157.61247,718.102585 L1157.61247,718.102585 L1152.27986,734.421425 C1151.86282,735.699413 1150.66533,736.558417 1149.32247,736.542874 L1149.32247,736.542874 L1132.09044,736.542874 C1130.75423,736.535735 1129.56647,737.393642 1129.1519,738.665359 C1128.73732,739.937077 1129.19091,741.331255 1130.27409,742.114592 L1130.27409,742.114592 L1144.24601,752.255585 C1145.328,753.040263 1145.77977,754.434794 1145.36376,755.705854 L1145.36376,755.705854 L1140.03114,772.024694 C1139.65136,773.270838 1140.0966,774.621372 1141.14272,775.396367 C1142.18884,776.171363 1143.60909,776.202845 1144.68845,775.474963 L1144.68845,775.474963 L1158.66036,765.333969 C1159.73684,764.55234 1161.1933,764.55234 1162.26978,765.333969 L1162.26978,765.333969 L1176.24169,775.474963 C1177.32105,776.202845 1178.7413,776.171363 1179.78742,775.396367 C1180.83354,774.621372 1181.27878,773.270838 1180.899,772.024694 L1180.899,772.024694 L1175.56638,755.705854 C1175.11832,754.391717 1175.60487,752.939973 1176.75399,752.162335 L1176.75399,752.162335 L1190.72591,742.021342 C1191.80909,741.238004 1192.26268,739.843827 1191.8481,738.572109 C1191.43353,737.300391 1190.24577,736.442484 1188.90956,736.449624 L1188.90956,736.449624 L1171.67753,736.449624 C1170.34323,736.454972 1169.15786,735.597916 1168.74343,734.328174 L1168.74343,734.328174 L1163.41082,718.009335 C1162.95817,716.784716 1161.7828,715.979427 1160.47866,716 Z" id="path-2"></path>
        <filter x="-12.5%" y="-10.0%" width="125.0%" height="125.0%" filterUnits="objectBoundingBox" id="filter-3">
            <feOffset dx="0" dy="3" in="SourceAlpha" result="shadowOffsetOuter1"></feOffset>
            <feGaussianBlur stdDeviation="4.5" in="shadowOffsetOuter1" result="shadowBlurOuter1"></feGaussianBlur>
            <feColorMatrix values="0 0 0 0 0.321568627   0 0 0 0 0.619607843   0 0 0 0 0.741176471  0 0 0 1 0" type="matrix" in="shadowBlurOuter1"></feColorMatrix>
        </filter>
    </defs>
    <g id="一体机" stroke="none" stroke-width="1" fill="none" fill-rule="evenodd">
        <g id="形状结合备份-3" transform="translate(-1091.000000, -680.000000)">
            <use fill="black" fill-opacity="1" filter="url(#filter-3)" xlink:href="#path-2"></use>
            <use fill="url(#linearGradient-1)" fill-rule="evenodd" xlink:href="#path-2"></use>
        </g>
    </g>
</svg>