<?xml version="1.0" encoding="UTF-8"?>
<svg width="40px" height="40px" viewBox="0 0 40 40" version="1.1" xmlns="http://www.w3.org/2000/svg" xmlns:xlink="http://www.w3.org/1999/xlink">
    <title>公共信息</title>
    <g id="一体机" stroke="none" stroke-width="1" fill="none" fill-rule="evenodd">
        <g id="未插卡" transform="translate(-1495.000000, -575.000000)" fill="#396886" fill-rule="nonzero">
            <g id="编组-5" transform="translate(1491.000000, 260.000000)">
                <g id="编组-4" transform="translate(0.000000, 5.000000)">
                    <g id="公共信息" transform="translate(24.000000, 330.000000) scale(-1, 1) translate(-24.000000, -330.000000) translate(4.000000, 310.000000)">
                        <path d="M29.5386455,5.86921187 L4.68287386,5.86921187 C2.10419112,5.86921187 0.012972037,8.01271143 0.012972037,10.6558612 L0.012972037,27.3641654 C0.012972037,30.0123117 2.10419112,32.1558112 4.68287386,32.1558112 L8.56308456,32.1558112 L8.56308456,38.706226 C8.56308456,39.6205859 9.57700896,40.1402222 10.2887059,39.5906069 L19.9599848,32.1558112 L29.5386455,32.1558112 C32.1222029,32.1558112 34.2085474,30.0123117 34.2085474,27.3691619 L34.2085474,10.6558612 C34.2085474,8.01271143 32.1173283,5.86921187 29.5386455,5.86921187 Z M8.63620408,21.333387 C7.45654202,21.333387 6.50111328,20.3540725 6.50111328,19.1449188 C6.50111328,17.9357652 7.45654206,16.9564508 8.63620408,16.9564508 C9.81586614,16.9564508 10.7713134,17.9357653 10.7713134,19.1449188 C10.7761695,20.3490759 9.81586609,21.333387 8.63620408,21.333387 Z M17.1863165,21.333387 C16.0066545,21.333387 15.0512258,20.3540725 15.0512258,19.1449188 C15.0512258,17.9357652 16.0066545,16.9564508 17.1863165,16.9564508 C18.3659786,16.9564508 19.3214259,17.9357653 19.3214259,19.1449188 C19.326282,20.3490759 18.3659786,21.333387 17.1863165,21.333387 Z M25.7364291,21.333387 C24.556767,21.333387 23.6013382,20.3540725 23.6013382,19.1449188 C23.6013382,17.9357652 24.556767,16.9564508 25.7364291,16.9564508 C26.9160911,16.9564508 27.8715199,17.9357653 27.8715199,19.1449188 C27.8715199,20.3490759 26.9160911,21.333387 25.7364291,21.333387 Z" id="形状"></path>
                        <path d="M30.8011764,4.41023315 C33.4676026,4.41023315 35.6319412,6.62868022 35.6319412,9.36176709 L35.6319412,26.2999104 C38.0253878,26.0950538 39.9069975,24.0414913 39.9069975,21.5282505 L39.9069975,6.44380967 C39.9069975,2.90128945 37.1040815,0.0283004883 33.6479641,0.0283004883 L10.381324,0.0283004883 C7.9391311,0.0283004883 5.93078082,1.95195396 5.72604607,4.41023315 L30.8011764,4.41023315 Z" id="路径"></path>
                    </g>
                </g>
            </g>
        </g>
    </g>
</svg>