<?xml version="1.0" encoding="UTF-8"?>
<svg width="40px" height="40px" viewBox="0 0 40 40" version="1.1" xmlns="http://www.w3.org/2000/svg" xmlns:xlink="http://www.w3.org/1999/xlink">
    <title>常见问题</title>
    <g id="一体机" stroke="none" stroke-width="1" fill="none" fill-rule="evenodd">
        <g id="未插卡" transform="translate(-1495.000000, -885.000000)" fill="#396886" fill-rule="nonzero">
            <g id="编组-5" transform="translate(1491.000000, 260.000000)">
                <g id="编组-4" transform="translate(0.000000, 5.000000)">
                    <g id="常见问题" transform="translate(4.000000, 620.000000)">
                        <path d="M20,0 C8.95535714,0 0,8.95089286 0,20 C0,31.0491071 8.95535714,40 20,40 C31.0446429,40 40,31.0491071 40,20 C40,8.95089286 31.0491071,0 20,0 Z M19.7946429,25.7142857 C19.7455357,25.7142857 19.7008929,25.7098214 19.6517857,25.7053571 C18.8660714,25.6339286 18.2901786,24.9642857 18.3660714,24.2142857 C18.5625,22.3258929 20.0178571,20.7991071 21.6205357,19.2723214 C24.1875,16.8303571 24.2276786,16.0535714 24.2723214,15.2321429 C24.3258929,14.2723214 23.9553571,13.34375 23.2232143,12.6160714 C22.3928571,11.78125 21.2142857,11.3035714 19.9955357,11.3035714 L19.9866071,11.3035714 C17.6383929,11.3080357 15.71875,13.1339286 15.71875,15.375 C15.71875,16.1294643 15.0803571,16.7410714 14.2857143,16.7410714 C13.4910714,16.7410714 12.8571429,16.125 12.8571429,15.3705357 C12.8571429,13.5580357 13.5982143,11.8526786 14.9419643,10.5669643 C16.2857143,9.28125 18.0758929,8.57589286 19.9821429,8.57140976 C21.9910714,8.56696429 23.9330357,9.35714286 25.3035714,10.7321429 C26.5803571,12.0133929 27.2321429,13.6607143 27.1383929,15.375 C27.0401786,17.1294643 26.4732143,18.5133929 23.6517857,21.2008929 C22.21875,22.5669643 21.3169643,23.5892857 21.2276786,24.4866071 C21.1473214,25.1875 20.5223214,25.7142857 19.7946429,25.7142857 L19.7946429,25.7142857 Z M18.2857143,29.7142857 C18.2857143,29.1026786 18.6116071,28.5357143 19.1428571,28.2276786 C19.6741071,27.9196429 20.3258929,27.9196429 20.8571429,28.2276786 C21.3883929,28.5357143 21.7142857,29.0982143 21.7142857,29.7142857 C21.7142857,30.6607143 20.9464286,31.4285714 20,31.4285714 C19.0535714,31.4285714 18.2857143,30.6607143 18.2857143,29.7142857 L18.2857143,29.7142857 Z" id="形状"></path>
                    </g>
                </g>
            </g>
        </g>
    </g>
</svg>