<?xml version="1.0" encoding="UTF-8"?>
<svg width="48px" height="36px" viewBox="0 0 48 36" version="1.1" xmlns="http://www.w3.org/2000/svg" xmlns:xlink="http://www.w3.org/1999/xlink">
    <title>茶卡挂失</title>
    <g id="一体机" stroke="none" stroke-width="1" fill="none" fill-rule="evenodd">
        <g id="未插卡" transform="translate(-1491.000000, -422.000000)" fill="#396886" fill-rule="nonzero">
            <g id="编组-5" transform="translate(1491.000000, 260.000000)">
                <g id="编组-4" transform="translate(0.000000, 5.000000)">
                    <g id="茶卡挂失" transform="translate(0.000000, 157.000000)">
                        <path d="M34.5,9 C39.3230855,9 43.7798004,11.5730853 46.1913432,15.7499999 C48.602886,19.9269145 48.602886,25.0730855 46.1913432,29.2500001 C43.7798004,33.4269147 39.3230855,36 34.5,36 C27.0441559,36 21,29.9558441 21,22.5 C21,15.0441559 27.0441559,9 34.5,9 L34.5,9 Z M25.725,22.5 C25.7247907,25.6181524 27.3793175,28.5022039 30.0711878,30.0759602 C32.7630581,31.6497165 36.087886,31.6767603 38.805,30.147 L26.856,18.192 C26.136,19.464 25.728,20.934 25.728,22.5 L25.725,22.5 Z M34.5,13.725 C32.934,13.725 31.464,14.136 30.192,14.853 L42.147,26.808 C43.6767603,24.090886 43.6497165,20.7660581 42.0759602,18.0741878 C40.5022039,15.3823175 37.6181524,13.7277907 34.5,13.728 L34.5,13.725 Z M39,3.55271368e-15 C40.5209245,0.000200633862 41.8010518,1.13852134 41.979,2.649 L42,3 L42,6 L4.26325641e-14,6 L4.26325641e-14,3 C4.26325641e-14,1.47907551 1.13852134,0.198948154 2.649,0.021 L3,3.55271368e-15 L39,3.55271368e-15 Z" id="形状"></path>
                        <path d="M18.03,23.49 L18.096,24.279 L18.192,25.017 L18.336,25.827 L18.438,26.289 L18.624,27.006 L18.774,27.504 L18.99,28.146 L19.299,28.926 L19.488,29.355 L19.779,29.961 L20.031,30.438 L20.391,31.062 L20.868,31.797 L21.267,32.358 L21.774,33.003 L3,33 C1.47907551,32.9997994 0.198948154,31.8614787 0.021,30.351 L-5.86197757e-14,30 L-5.86197757e-14,10.5 L23.178,10.5 C19.617493,13.8502462 17.7310823,18.610245 18.03,23.49 L18.03,23.49 Z" id="路径"></path>
                    </g>
                </g>
            </g>
        </g>
    </g>
</svg>