<?xml version="1.0" encoding="UTF-8"?>
<svg width="40px" height="40px" viewBox="0 0 40 40" version="1.1" xmlns="http://www.w3.org/2000/svg" xmlns:xlink="http://www.w3.org/1999/xlink">
    <title>远程联系</title>
    <g id="一体机" stroke="none" stroke-width="1" fill="none" fill-rule="evenodd">
        <g id="未插卡" transform="translate(-1495.000000, -265.000000)" fill="#396886" fill-rule="nonzero">
            <g id="编组-5" transform="translate(1491.000000, 260.000000)">
                <g id="编组-4" transform="translate(0.000000, 5.000000)">
                    <g id="远程联系" transform="translate(4.000000, 0.000000)">
                        <path d="M28.5388844,39.8961609 C26.0350368,39.8961609 22.8022861,38.18261 20.5313503,36.7447803 C17.4902722,34.8195568 14.2139514,32.1557537 11.305825,29.2450835 L11.2952014,29.2343781 L10.371981,28.285642 C7.53853339,25.2981963 4.94597657,21.9321566 3.07165445,18.8077921 C1.67225562,16.474937 0.00399504135,13.1540621 0.00399504135,10.5816453 C0.00399504135,7.82875314 1.9202736,4.90714776 2.74384755,3.77899313 C3.38668616,2.89821098 5.63247499,0.0250785291 7.54072982,0.0250785291 C8.32409553,0.0250785291 9.16793047,0.5519397 10.2769515,1.73362127 C11.2579068,2.77824636 12.1992366,4.07708989 12.8159421,4.98249901 C13.644402,6.1980427 14.4104204,7.4708349 14.9736046,8.56650584 C15.8849015,10.3405674 15.9902856,11.1017065 15.9902856,11.5194922 C15.9902856,12.3626906 15.5613978,13.0943325 14.715994,13.6936503 C14.1593543,14.0880036 13.4908308,14.3849517 12.8446751,14.6722512 C12.4086601,14.8660968 11.7126587,15.1752205 11.4471141,15.3926823 C11.5399471,15.7955815 11.9447638,16.7691284 13.0387235,18.4192739 C14.0583182,19.9571738 15.3768075,21.6234004 16.5677241,22.8798359 C17.790915,24.1033282 19.4125125,25.4581797 20.909989,26.5053319 C22.515539,27.6289838 23.4631444,28.0451155 23.855903,28.1404072 C24.0672091,27.8677185 24.3683002,27.1527091 24.5568799,26.7051045 C24.8363204,26.0410949 25.1256225,25.3542043 25.5096402,24.7823162 C26.0932198,23.9135718 26.8050893,23.4734105 27.6262427,23.4734105 C28.032942,23.4734105 28.7736341,23.5815211 30.5004364,24.517714 C31.5670975,25.0961264 32.8061565,25.8832249 33.9893633,26.7342801 C34.8706721,27.3678735 36.1349229,28.3348501 37.1520522,29.342259 C38.3018641,30.4819921 38.8147992,31.3487148 38.8147992,32.1536403 C38.8147992,34.1139204 36.0183773,36.4212755 35.1610948,37.0813338 C34.062294,37.928024 31.2182229,39.8961609 28.5388844,39.8961609 L28.5388844,39.8961609 L28.5388844,39.8961609 L28.5388844,39.8961609 Z M26.5482408,19.1164564 C26.1483549,19.1164564 25.7941908,18.8223111 25.7222015,18.4033767 C25.516633,17.2062114 24.8419236,16.1657214 23.8218359,15.4742362 C22.7874937,14.7727348 21.522974,14.5122218 20.2611886,14.7408944 C19.8043747,14.8237807 19.3688976,14.5102002 19.2885259,14.0408173 C19.207975,13.571756 19.5128762,13.1242892 19.9696901,13.0416326 C21.6559704,12.7359089 23.352695,13.0884515 24.746939,14.0341551 C26.1559752,14.9894614 27.089864,16.4347344 27.3763869,18.1038097 C27.456893,18.5731926 27.151947,19.0206134 26.6951779,19.1033618 C26.645915,19.1123213 26.5966969,19.1164564 26.5482408,19.1164564 L26.5482408,19.1164564 L26.5482408,19.1164564 Z M31.6041681,16.8884957 C31.2042822,16.8884957 30.8498491,16.5942584 30.7781288,16.1755998 C30.3793635,13.8519338 29.0723495,11.8349106 27.0981119,10.4963239 C25.109351,9.14762909 22.6813027,8.6463138 20.2612334,9.08482108 C19.8044195,9.16752362 19.3692562,8.85398909 19.2885708,8.3849278 C19.2080199,7.9157746 19.5129211,7.46798626 19.969735,7.38532965 C22.814344,6.87027658 25.6745971,7.46325382 28.023215,9.0562887 C30.3867149,10.6586506 31.9525498,13.0807785 32.4320901,15.8759868 C32.5128652,16.3453697 32.2076502,16.7929283 31.7508363,16.8755849 C31.7016182,16.8842687 31.6526242,16.8884957 31.6041681,16.8884957 L31.6041681,16.8884957 L31.6041681,16.8884957 Z M38.3543098,16.2453915 C37.9543791,16.2453915 37.599677,15.9507867 37.5279567,15.5321739 C36.8475097,11.5671381 34.6192923,8.12597697 31.2535004,5.84421363 C27.8734987,3.55220438 23.7493087,2.69986274 19.6409419,3.44413973 C19.1843521,3.5267504 18.748875,3.21349151 18.6685034,2.74410861 C18.5880869,2.27504732 18.8929433,1.82744275 19.349802,1.74483208 C23.8825741,0.923503861 28.4387001,1.86787509 32.1788724,4.40381088 C35.9336577,6.94990077 38.4207856,10.7956611 39.1822317,15.2326529 C39.262962,15.7017142 38.9577918,16.1492268 38.5009779,16.2318375 C38.451715,16.2410726 38.402721,16.2453915 38.3543098,16.2453915 L38.3543098,16.2453915 L38.3543098,16.2453915 Z" id="形状"></path>
                    </g>
                </g>
            </g>
        </g>
    </g>
</svg>