<?xml version="1.0" encoding="UTF-8"?>
<svg width="40px" height="40px" viewBox="0 0 40 40" version="1.1" xmlns="http://www.w3.org/2000/svg" xmlns:xlink="http://www.w3.org/1999/xlink">
    <title>宣传视频</title>
    <g id="一体机" stroke="none" stroke-width="1" fill="none" fill-rule="evenodd">
        <g id="未插卡" transform="translate(-1495.000000, -730.000000)" fill="#396886" fill-rule="nonzero">
            <g id="编组-5" transform="translate(1491.000000, 260.000000)">
                <g id="编组-4" transform="translate(0.000000, 5.000000)">
                    <g id="宣传视频" transform="translate(4.000000, 465.000000)">
                        <path d="M14.96875,29.8601103 C14.96875,27.1118566 17.1965533,24.8840993 19.944807,24.8840993 C22.6935662,24.8840993 24.9209559,27.1118566 24.9209559,29.8601103 C24.9209559,32.608318 22.6935662,34.8363051 19.944807,34.8363051 C17.1965074,34.8363051 14.96875,32.6082721 14.96875,29.8601103 L14.96875,29.8601103 Z M26.1649816,19.9081342 C26.1649816,17.1598805 28.3925551,14.9319393 31.1409926,14.9319393 C33.8894301,14.9319393 36.1170956,17.1598805 36.1170956,19.9081342 C36.1170956,22.6565257 33.8894301,24.8840993 31.1409926,24.8840993 C28.3925551,24.8840993 26.1649816,22.6565257 26.1649816,19.9081342 L26.1649816,19.9081342 Z M14.96875,9.95620404 C14.96875,7.20758272 17.1965533,4.98019301 19.944807,4.98019301 C22.6935662,4.98019301 24.9209559,7.20758272 24.9209559,9.95620404 C24.9209559,12.7045956 22.6935662,14.9319393 19.944807,14.9319393 C17.1965074,14.9319393 14.96875,12.7045956 14.96875,9.95620404 L14.96875,9.95620404 Z M5.01686581,19.9081342 C5.01686581,17.1598805 7.24443934,14.9319393 9.99287684,14.9319393 C12.7414522,14.9319393 14.9688419,17.1598805 14.9688419,19.9081342 C14.9688419,22.6565257 12.7414522,24.8840993 9.99287684,24.8840993 C7.24443934,24.8840993 5.01686581,22.6565257 5.01686581,19.9081342 L5.01686581,19.9081342 Z M17.4567555,19.9081342 C17.4567555,18.5337776 18.570864,17.4199908 19.944807,17.4199908 C21.3193474,17.4199908 22.4329504,18.5338235 22.4329504,19.9081342 C22.4329504,21.2826746 21.3192555,22.3960937 19.944807,22.3960937 C18.570864,22.3960937 17.4567555,21.2826287 17.4567555,19.9081342 L17.4567555,19.9081342 Z M30.5317096,36.7705423 C31.7569853,38.5592371 34.6305147,39.8124081 37.9829504,39.8124081 C38.6255055,39.8124081 39.8490349,35.9499081 39.8490349,35.9499081 C37.5524357,35.6160386 35.6369485,34.6779412 34.5621324,33.4243566 C37.8454963,29.8744485 39.8490349,25.1253676 39.8490349,19.9081342 C39.8490349,8.9152114 30.9376838,0.00404411765 19.944807,0.00404411765 C8.95206801,0.00404411765 0.0407628676,8.9152114 0.0407628676,19.9081342 C0.0407628676,30.901011 8.95211397,39.8124081 19.944807,39.8124081 C23.8344669,39.8124081 27.465671,38.6993107 30.5316636,36.7705882 L30.5317096,36.7705423 Z" id="形状"></path>
                    </g>
                </g>
            </g>
        </g>
    </g>
</svg>