<?xml version="1.0" encoding="UTF-8"?>
<svg width="170px" height="170px" viewBox="0 0 170 170" version="1.1" xmlns="http://www.w3.org/2000/svg" xmlns:xlink="http://www.w3.org/1999/xlink">
    <title>kulian</title>
    <g id="一体机" stroke="none" stroke-width="1" fill="none" fill-rule="evenodd">
        <g id="报错" transform="translate(-629.000000, -405.000000)" fill="#E86B60" fill-rule="nonzero">
            <g id="kulian" transform="translate(629.000000, 405.000000)">
                <path d="M85,170 C38.0557963,170 0,131.944204 0,85 C0,38.0557963 38.0557963,0 85,0 C131.944204,0 170,38.0557963 170,85 C170,131.944204 131.944204,170 85,170 Z M55.25,76.5 C59.8051364,76.5 64.014256,74.0698639 66.2918242,70.1250001 C68.5693924,66.1801363 68.5693924,61.3198637 66.2918242,57.3749999 C64.014256,53.4301361 59.8051364,51 55.25,51 C48.2083694,51 42.5,56.7083694 42.5,63.75 C42.5,70.7916306 48.2083694,76.5 55.25,76.5 L55.25,76.5 Z M114.75,76.5 C119.305136,76.5 123.514256,74.0698639 125.791824,70.1250001 C128.069392,66.1801363 128.069392,61.3198637 125.791824,57.3749999 C123.514256,53.4301361 119.305136,51 114.75,51 C107.708369,51 102,56.7083694 102,63.75 C102,70.7916306 107.708369,76.5 114.75,76.5 L114.75,76.5 Z M121.38,125.901934 C110.5991,118.612422 97.8780364,114.727424 84.8640332,114.749902 C71.7909668,114.749902 59.2790332,118.609033 48.6540332,125.715 C46.7793003,127.044727 46.3014133,129.623971 47.5753079,131.537081 C48.8492025,133.450191 51.4132419,134.003889 53.3630664,132.786934 C62.683983,126.551781 73.6497564,123.23187 84.8638672,123.25 C96.3558008,123.25 107.303867,126.65 116.619834,132.94 C117.876287,133.842695 119.524023,133.991316 120.921724,133.328017 C122.319425,132.664718 123.246275,131.294291 123.341534,129.750121 C123.436793,128.205952 122.68541,126.731996 121.379834,125.901934 L121.38,125.901934 Z" id="形状"></path>
            </g>
        </g>
    </g>
</svg>