<?xml version="1.0" encoding="UTF-8"?>
<svg width="170px" height="170px" viewBox="0 0 170 170" version="1.1" xmlns="http://www.w3.org/2000/svg" xmlns:xlink="http://www.w3.org/1999/xlink">
    <title>kulian</title>
    <g id="一体机" stroke="none" stroke-width="1" fill="none" fill-rule="evenodd">
        <g id="提示" transform="translate(-395.000000, -405.000000)" fill="#F1BD33" fill-rule="nonzero">
            <g id="kulian" transform="translate(395.000000, 405.000000)">
                <path d="M85,0 C131.944204,0 170,38.0557963 170,85 C170,131.944204 131.944204,170 85,170 C38.0557963,170 0,131.944204 0,85 C0,38.0557963 38.0557963,0 85,0 Z M110.5,118 L62.5,118 C60.0147186,118 58,120.014719 58,122.5 C58,124.985281 60.0147186,127 62.5,127 L62.5,127 L110.5,127 C112.985281,127 115,124.985281 115,122.5 C115,120.014719 112.985281,118 110.5,118 L110.5,118 Z M55.25,76.5 C59.8051364,76.5 64.014256,74.0698639 66.2918242,70.1250001 C68.5693924,66.1801363 68.5693924,61.3198637 66.2918242,57.3749999 C64.014256,53.4301361 59.8051364,51 55.25,51 C48.2083694,51 42.5,56.7083694 42.5,63.75 C42.5,70.7916306 48.2083694,76.5 55.25,76.5 L55.25,76.5 Z M114.75,76.5 C119.305136,76.5 123.514256,74.0698639 125.791824,70.1250001 C128.069392,66.1801363 128.069392,61.3198637 125.791824,57.3749999 C123.514256,53.4301361 119.305136,51 114.75,51 C107.708369,51 102,56.7083694 102,63.75 C102,70.7916306 107.708369,76.5 114.75,76.5 L114.75,76.5 Z" id="形状"></path>
            </g>
        </g>
    </g>
</svg>