<?xml version="1.0" encoding="UTF-8"?>
<svg width="170px" height="170px" viewBox="0 0 170 170" version="1.1" xmlns="http://www.w3.org/2000/svg" xmlns:xlink="http://www.w3.org/1999/xlink">
    <title>haopingxiaolian</title>
    <g id="一体机" stroke="none" stroke-width="1" fill="none" fill-rule="evenodd">
        <g id="成功" transform="translate(-411.000000, -404.000000)" fill="#68B28E" fill-rule="nonzero">
            <g id="haopingxiaolian" transform="translate(411.000000, 404.000000)">
                <path d="M85,0 C131.939732,0 170,38.0602679 170,85 C170,131.939732 131.939732,170 85,170 C38.0602679,170 0,131.939732 0,85 C0,38.0602679 38.0602679,0 85,0 Z M121.200893,99.4196429 L48.7991071,99.4196429 C48.7991071,119.417411 65.0022321,135.620536 85,135.620536 C104.997768,135.620536 121.200893,119.417411 121.200893,99.4196429 L121.200893,99.4196429 Z M56.1037946,53.0111607 C49.5770089,53.0111607 44.2834821,58.3046875 44.2834821,64.8314732 C44.2834821,71.3582589 49.5580357,76.6517857 56.1037946,76.6707589 C62.6305804,76.6707589 67.9241071,71.3772321 67.9241071,64.8504464 L67.9241071,64.8504464 L67.9241071,64.8314732 C67.9241071,58.3046875 62.6305804,53.0111607 56.1037946,53.0111607 Z M113.896205,53.0111607 C107.36942,53.0111607 102.075893,58.3046875 102.075893,64.8314732 C102.075893,71.3582589 107.36942,76.6517857 113.896205,76.6517857 C120.422991,76.6517857 125.716518,71.3582589 125.716518,64.8314732 C125.716518,58.3046875 120.422991,53.0111607 113.896205,53.0111607 Z" id="形状"></path>
            </g>
        </g>
    </g>
</svg>