<?xml version="1.0" encoding="UTF-8"?>
<svg width="138px" height="138px" viewBox="0 0 138 138" version="1.1" xmlns="http://www.w3.org/2000/svg" xmlns:xlink="http://www.w3.org/1999/xlink">
    <title>形状结合备份 10</title>
    <defs>
        <linearGradient x1="50%" y1="0%" x2="50%" y2="100%" id="linearGradient-1">
            <stop stop-color="#FCFDFE" offset="0%"></stop>
            <stop stop-color="#E0F2FE" offset="100%"></stop>
        </linearGradient>
        <path d="M1500,451 C1533.13708,451 1560,477.862915 1560,511 C1560,544.137085 1533.13708,571 1500,571 C1466.86292,571 1440,544.137085 1440,511 C1440,477.862915 1466.86292,451 1500,451 Z M1505.40837,484 L1481.65512,484 C1479.63687,484 1478,485.62 1478,487.61125 L1478,487.61125 L1478,534.385375 C1478,536.38 1479.63687,538 1481.65512,538 L1481.65512,538 L1518.20975,538 C1520.228,538 1521.86487,536.38 1521.86487,534.385375 L1521.86487,534.385375 L1521.86487,503.537875 L1507.295,503.537875 C1503.89638,503.537875 1501.13562,500.804125 1501.13562,497.422375 L1501.13562,497.422375 L1501.13562,484.003375 L1504.51062,484.003375 L1504.51062,497.422375 C1504.51597,498.155167 1504.81245,498.855768 1505.33472,499.369812 C1505.85699,499.883857 1506.56222,500.169166 1507.295,500.162875 L1507.295,500.162875 L1521.74338,500.162875 L1505.40837,484 Z M1510.05575,521.125 C1510.98773,521.125 1511.74325,521.880519 1511.74325,522.8125 C1511.74325,523.744481 1510.98773,524.5 1510.05575,524.5 L1510.05575,524.5 L1489.80575,524.5 C1488.87377,524.5 1488.11825,523.744481 1488.11825,522.8125 C1488.11825,521.880519 1488.87377,521.125 1489.80575,521.125 L1489.80575,521.125 Z M1510.05575,511 C1510.98773,511 1511.74325,511.755519 1511.74325,512.6875 C1511.74325,513.619481 1510.98773,514.375 1510.05575,514.375 L1510.05575,514.375 L1489.80575,514.375 C1488.87377,514.375 1488.11825,513.619481 1488.11825,512.6875 C1488.11825,511.755519 1488.87377,511 1489.80575,511 L1489.80575,511 Z" id="path-2"></path>
        <filter x="-12.5%" y="-10.0%" width="125.0%" height="125.0%" filterUnits="objectBoundingBox" id="filter-3">
            <feOffset dx="0" dy="3" in="SourceAlpha" result="shadowOffsetOuter1"></feOffset>
            <feGaussianBlur stdDeviation="4.5" in="shadowOffsetOuter1" result="shadowBlurOuter1"></feGaussianBlur>
            <feColorMatrix values="0 0 0 0 0.321568627   0 0 0 0 0.619607843   0 0 0 0 0.741176471  0 0 0 1 0" type="matrix" in="shadowBlurOuter1"></feColorMatrix>
        </filter>
    </defs>
    <g id="一体机" stroke="none" stroke-width="1" fill="none" fill-rule="evenodd">
        <g id="形状结合备份-10" transform="translate(-1431.000000, -445.000000)">
            <use fill="black" fill-opacity="1" filter="url(#filter-3)" xlink:href="#path-2"></use>
            <use fill="url(#linearGradient-1)" fill-rule="evenodd" xlink:href="#path-2"></use>
        </g>
    </g>
</svg>