<?xml version="1.0" encoding="UTF-8"?>
<svg width="32px" height="24px" viewBox="0 0 32 24" version="1.1" xmlns="http://www.w3.org/2000/svg" xmlns:xlink="http://www.w3.org/1999/xlink">
    <title>路径</title>
    <g id="一体机" stroke="none" stroke-width="1" fill="none" fill-rule="evenodd">
        <g id="记录查看" transform="translate(-100.000000, -200.000000)" fill="#5EB3D7" fill-rule="nonzero">
            <g id="路径-2" transform="translate(100.000000, 200.000000)">
                <path d="M27.7099549,11.4569235 C25.8041329,9.6124068 23.3240754,8.29244595 20.3355617,7.53646836 C18.888694,7.17082746 17.4050841,6.95702114 15.9105701,6.89877301 L15.9105701,0.717242073 C15.9103444,0.446775983 15.7521986,0.199477466 15.5016718,0.0778324838 C15.2491224,-0.0444391468 14.9470392,-0.0213217563 14.7176536,0.137830695 L0.308430533,10.1386769 C0.114817577,10.272624 0,10.488318 0,10.7180883 C0,10.9478585 0.114817577,11.1635525 0.308430533,11.2974997 L14.7176536,21.2520615 C14.9469709,21.409978 15.2481387,21.4324178 15.499894,21.3103455 C15.7508305,21.1897615 15.9097494,20.9429932 15.9105701,20.6726501 L15.9105701,14.8511085 C21.0964682,14.9796762 25.233453,16.4539181 27.9072928,19.1349815 C30.0051192,21.2383477 30.4975751,23.3811412 30.508242,23.4257113 C30.5793548,23.7599871 30.8869175,24 31.2442591,24 C31.6525447,24.0028823 31.9875384,23.6890332 31.9962765,23.2954295 C32.0833897,18.2812925 30.6415784,14.2974107 27.7099549,11.4569235 Z" id="路径"></path>
            </g>
        </g>
    </g>
</svg>